# xmcd CD database file
# Copyright (C) 1993-1998 Ti Kan
#
# Track frame offsets:
#	183
#	26908
#	41310
#	57048
#	68260
#	87590
#	122055
#	143408
#	157733
#	169170
#	185775
#	205380
#
# Disc length: 3042 seconds
#
# Revision: 2
# Processed by: cddbd v1.4b41PL1 Copyright (c) Steve Scherf et al.
# Submitted via: CDValet v3.30 - Copyright (c) 1997 Greg Leichner
#
DISCID=9b0be00c
DTITLE=Nana Mouskouri - Live at Herod Atticus CD 1/2
DYEAR=1900
DGENRE=
TTITLE0=Fidaki
TTITLE1=Tora pous pas stin xenitia
TTITLE2=Pame mia volta sto fengari
TTITLE3=To fengari ine kokkino
TTITLE4=Vale ton ilio synoro
TTITLE5=Medley
TTITLE6=Den itan nissi
TTITLE7=Aspri mera
TTITLE8=Mia fora ki enan kairo
TTITLE9=Odos oniron
TTITLE10=Hartino to fengaraki
TTITLE11=Casta diva
EXTD=
EXTT0=
EXTT1=
EXTT2=
EXTT3=
EXTT4=
EXTT5=
EXTT6=
EXTT7=
EXTT8=
EXTT9=
EXTT10=
EXTT11=
PLAYORDER=
